<svg xmlns="http://www.w3.org/2000/svg" viewBox="0 0 128 128"><defs><style>.cls-1{isolation:isolate;}.cls-2{mix-blend-mode:multiply;}.cls-3{fill:#5ecc44;}.cls-4{fill:#4aa82f;}.cls-5{fill:#eae0b5;}</style></defs><title>frog</title><g class="cls-1"><g id="icons" class="cls-2"><path class="cls-3" d="M64,94c17.35,0,33-6.26,39.63-15.78A25.47,25.47,0,0,0,105,70c0-17.67-18.36-32-41-32S23,52.33,23,70a25.47,25.47,0,0,0,1.37,8.22C31,87.74,46.65,94,64,94Z"/><circle class="cls-4" cx="60" cy="78" r="2"/><circle class="cls-4" cx="68" cy="78" r="2"/><path class="cls-4" d="M64,102c19,0,35-10.09,39.63-23.78C97,87.74,81.35,94,64,94S31,87.74,24.37,78.22C29,91.91,45,102,64,102Z"/><circle class="cls-3" cx="43" cy="45" r="18"/><circle class="cls-3" cx="85" cy="45" r="18"/><circle class="cls-5" cx="85" cy="45" r="12"/><circle cx="85" cy="45" r="4"/><circle class="cls-5" cx="43" cy="45" r="12"/><circle cx="43" cy="45" r="4"/></g></g></svg>